P3
#Esto es una imagen que crea una bandera mexicana bastante basica
3 3
15
0 15 0	15 15 15	15 0 0
0 15 0 	15 15 15	15 0 0
0 15 0	15 15 15	15 0 0